<?xml version="1.0" standalone="no"?>
<!DOCTYPE svg PUBLIC "-//W3C//DTD SVG 20010904//EN"
 "http://www.w3.org/TR/2001/REC-SVG-20010904/DTD/svg10.dtd">
<svg version="1.0" xmlns="http://www.w3.org/2000/svg"
 width="257.000000pt" height="257.000000pt" viewBox="0 0 257.000000 257.000000"
 preserveAspectRatio="xMidYMid meet">
<metadata>
Created by potrace 1.14, written by Peter Selinger 2001-2017
</metadata>
<g transform="translate(0.000000,257.000000) scale(0.100000,-0.100000)"
fill="#000000" stroke="none">
<path d="M1247 2104 c-4 -4 -29 -9 -55 -10 -126 -6 -214 -33 -301 -90 -168
-112 -254 -293 -246 -518 7 -181 78 -295 216 -346 68 -26 72 -13 -33 -124 -31
-34 -72 -78 -91 -99 -19 -21 -37 -35 -40 -30 -2 4 -30 87 -62 183 -66 203 -69
209 -93 208 -9 0 -33 2 -52 6 -46 9 -137 24 -177 30 -26 3 -34 0 -39 -16 -11
-35 -12 -34 215 -73 13 -2 28 -8 32 -12 6 -6 67 -187 135 -401 2 -7 11 -15 20
-19 13 -5 43 21 115 95 99 103 119 119 99 82 -6 -11 -9 -20 -6 -20 3 0 -1 -15
-9 -33 -30 -72 -57 -242 -61 -378 -3 -142 5 -179 38 -166 12 4 16 36 21 164 7
172 19 238 83 441 l38 123 56 -8 c99 -15 388 -8 460 11 36 9 74 19 85 21 18 4
31 -17 93 -148 100 -210 112 -255 109 -396 -2 -89 0 -114 11 -118 32 -13 46
24 49 124 4 141 -16 212 -114 418 -16 34 -21 39 107 -104 36 -41 60 -61 73
-59 15 2 36 48 95 212 63 171 81 210 97 212 42 6 102 14 149 19 72 9 70 8 79
29 14 35 -16 40 -143 21 -14 -2 -50 -7 -80 -10 -30 -4 -60 -12 -66 -18 -9 -9
-80 -194 -140 -367 -6 -16 -5 -17 -121 116 -83 95 -93 107 -93 114 0 4 15 20
33 37 72 68 113 143 134 248 9 41 8 161 0 208 -35 191 -174 353 -360 417 -64
22 -245 39 -260 24z m155 -59 c58 -7 66 -10 146 -47 243 -115 345 -433 213
-661 -85 -146 -225 -200 -525 -199 -97 1 -159 6 -206 17 -3 1 -32 7 -65 14
-191 42 -257 131 -258 346 -1 179 43 288 159 394 30 27 80 62 112 76 31 15 66
31 78 37 11 5 58 11 105 13 46 3 100 8 119 13 19 5 44 8 55 6 11 -1 41 -5 67
-9z"/>
<path d="M1302 1698 c-7 -7 -12 -24 -12 -38 0 -34 17 -50 55 -50 38 0 55 16
55 50 0 34 -17 50 -55 50 -17 0 -36 -5 -43 -12z"/>
<path d="M890 1591 c-15 -28 -12 -46 8 -64 24 -22 78 -22 86 -1 10 25 7 59 -6
72 -20 20 -76 15 -88 -7z"/>
<path d="M1456 1481 c-24 -45 -122 -129 -161 -137 -39 -7 -60 -27 -51 -49 15
-40 112 -1 194 79 58 56 86 100 78 122 -9 24 -45 16 -60 -15z"/>
</g>
</svg>
